<svg xmlns="http://www.w3.org/2000/svg" xmlns:xlink="http://www.w3.org/1999/xlink" width="499" height="186" viewBox="0 0 499 186">
  <defs>
    <clipPath id="clip-path">
      <rect id="Rectangle_11129" data-name="Rectangle 11129" width="499" height="186" transform="translate(682 441.125)" fill="#fff" stroke="#707070" stroke-width="1"/>
    </clipPath>
  </defs>
  <g id="Mask_Group_52" data-name="Mask Group 52" transform="translate(-682 -441.125)" clip-path="url(#clip-path)">
    <g id="Component_108_2" data-name="Component 108 – 2" transform="translate(647.809 444.065)">
      <g id="Group_942" data-name="Group 942" transform="translate(0 248.011)">
        <g id="Group_229" data-name="Group 229" transform="translate(82.629 933.593)">
          <rect id="Rectangle_10726" data-name="Rectangle 10726" width="15.578" height="114.849" transform="translate(0 0)" fill="#e5225c"/>
        </g>
        <g id="Group_262" data-name="Group 262" transform="translate(220.487 1083.341)">
          <rect id="Rectangle_10726-2" data-name="Rectangle 10726" width="15.578" height="114.849" transform="translate(0 0)" fill="#e5225c"/>
        </g>
        <g id="Group_264" data-name="Group 264" transform="translate(334.014 1228.864)">
          <rect id="Rectangle_10726-3" data-name="Rectangle 10726" width="15.578" height="114.849" transform="translate(0 0)" fill="#e5225c"/>
        </g>
        <g id="Group_230" data-name="Group 230" transform="translate(0 785.956)">
          <rect id="Rectangle_10727" data-name="Rectangle 10727" width="15.578" height="114.849" fill="#e5225c"/>
        </g>
        <g id="Group_233" data-name="Group 233" transform="translate(63.69 1081.229)">
          <path id="Path_42063" data-name="Path 42063" d="M287.051,0l26.835,53.99L340.689,0Z" transform="translate(-287.051 0)" fill="#f3bf30"/>
          <path id="Path_42064" data-name="Path 42064" d="M287.107,119.115h53.533V68.45l-26.7,39.938L287.107,68.451Z" transform="translate(-287.055 -4.267)" fill="#e8825c" fill-rule="evenodd"/>
        </g>
        <g id="Group_263" data-name="Group 263" transform="translate(201.548 1230.976)">
          <path id="Path_42063-2" data-name="Path 42063" d="M287.051,0l26.835,53.99L340.689,0Z" transform="translate(-287.051 0)" fill="#f3bf30"/>
          <path id="Path_42064-2" data-name="Path 42064" d="M287.107,119.115h53.533V68.45l-26.7,39.938L287.107,68.451Z" transform="translate(-287.055 -4.267)" fill="#e8825c" fill-rule="evenodd"/>
        </g>
        <g id="Group_242" data-name="Group 242" transform="translate(40.964 1228.864)">
          <rect id="Rectangle_10734" data-name="Rectangle 10734" width="15.577" height="114.849" transform="translate(0 0)" fill="#213e92"/>
          <path id="Path_42085" data-name="Path 42085" d="M251.368,30.552H198.239V46.3h37.55V72.9h-37.55V88.652h53.128v-58.1Z" transform="translate(-153.249 -1.904)" fill="#329d7b" fill-rule="evenodd"/>
        </g>
        <g id="Group_250" data-name="Group 250" transform="translate(33.388 785.957)">
          <path id="Path_42105" data-name="Path 42105" d="M463.833,0l20.715,30.922L505.218,0Z" transform="translate(-427.762 0)" fill="#329d7b"/>
          <path id="Path_42106" data-name="Path 42106" d="M544.314,0,505.421,57.393l38.894,57.456Z" transform="translate(-430.787 0)" fill="#e8825c"/>
          <path id="Path_42107" data-name="Path 42107" d="M424.933,0V114.848l38.894-57.456Z" transform="translate(-424.933 0)" fill="#213e92"/>
          <path id="Path_42108" data-name="Path 42108" d="M463.833,120.428l20.715-30.921,20.67,30.921Z" transform="translate(-427.762 -5.58)" fill="#f3bf30" fill-rule="evenodd"/>
        </g>
        <g id="Group_261" data-name="Group 261" transform="translate(171.246 935.705)">
          <path id="Path_42105-2" data-name="Path 42105" d="M463.833,0l20.715,30.922L505.218,0Z" transform="translate(-427.762 0)" fill="#329d7b"/>
          <path id="Path_42106-2" data-name="Path 42106" d="M544.314,0,505.421,57.393l38.894,57.456Z" transform="translate(-430.787 0)" fill="#e8825c"/>
          <path id="Path_42107-2" data-name="Path 42107" d="M424.933,0V114.848l38.894-57.456Z" transform="translate(-424.933 0)" fill="#213e92"/>
          <path id="Path_42108-2" data-name="Path 42108" d="M463.833,120.428l20.715-30.921,20.67,30.921Z" transform="translate(-427.762 -5.58)" fill="#f3bf30" fill-rule="evenodd"/>
        </g>
        <g id="Group_265" data-name="Group 265" transform="translate(284.773 1081.228)">
          <path id="Path_42105-3" data-name="Path 42105" d="M463.833,0l20.715,30.922L505.218,0Z" transform="translate(-427.762 0)" fill="#329d7b"/>
          <path id="Path_42106-3" data-name="Path 42106" d="M544.314,0,505.421,57.393l38.894,57.456Z" transform="translate(-430.787 0)" fill="#e8825c"/>
          <path id="Path_42107-3" data-name="Path 42107" d="M424.933,0V114.848l38.894-57.456Z" transform="translate(-424.933 0)" fill="#213e92"/>
          <path id="Path_42108-3" data-name="Path 42108" d="M463.833,120.428l20.715-30.921,20.67,30.921Z" transform="translate(-427.762 -5.58)" fill="#f3bf30" fill-rule="evenodd"/>
        </g>
        <g id="Group_251" data-name="Group 251" transform="translate(82.629 147.637)">
          <rect id="Rectangle_10738" data-name="Rectangle 10738" width="15.578" height="114.849" transform="translate(0 0)" fill="#e5225c"/>
        </g>
        <g id="Group_983" data-name="Group 983" transform="translate(480.087 2.114)">
          <rect id="Rectangle_10738-2" data-name="Rectangle 10738" width="15.578" height="114.849" transform="translate(0 0)" fill="#e5225c"/>
        </g>
        <g id="Group_985" data-name="Group 985" transform="translate(333.497 0)">
          <rect id="Rectangle_10738-3" data-name="Rectangle 10738" width="15.578" height="114.849" transform="translate(0)" fill="#e5225c"/>
        </g>
        <g id="Group_257" data-name="Group 257" transform="translate(220.487 297.384)">
          <rect id="Rectangle_10738-4" data-name="Rectangle 10738" width="15.578" height="114.849" transform="translate(0 0)" fill="#e5225c"/>
        </g>
        <g id="Group_268" data-name="Group 268" transform="translate(334.014 442.908)">
          <rect id="Rectangle_10738-5" data-name="Rectangle 10738" width="15.578" height="114.849" transform="translate(0 0)" fill="#e5225c"/>
        </g>
        <g id="Group_274" data-name="Group 274" transform="translate(471.872 592.656)">
          <rect id="Rectangle_10738-6" data-name="Rectangle 10738" width="15.578" height="114.849" transform="translate(0 0)" fill="#e5225c"/>
        </g>
        <g id="Group_252" data-name="Group 252" transform="translate(63.69 295.272)">
          <path id="Path_42111" data-name="Path 42111" d="M287.051,0l26.835,53.99L340.689,0Z" transform="translate(-287.051 0)" fill="#f3bf30"/>
          <path id="Path_42112" data-name="Path 42112" d="M287.107,119.115h53.533V68.45l-26.7,39.938L287.107,68.451Z" transform="translate(-287.055 -4.267)" fill="#e8825c" fill-rule="evenodd"/>
        </g>
        <g id="Group_982" data-name="Group 982" transform="translate(461.148 149.75)">
          <path id="Path_42111-2" data-name="Path 42111" d="M287.051,0l26.835,53.99L340.689,0Z" transform="translate(-287.051 0)" fill="#f3bf30"/>
          <path id="Path_42112-2" data-name="Path 42112" d="M287.107,119.115h53.533V68.45l-26.7,39.938L287.107,68.451Z" transform="translate(-287.055 -4.267)" fill="#e8825c" fill-rule="evenodd"/>
        </g>
        <g id="Group_984" data-name="Group 984" transform="translate(314.558 147.636)">
          <path id="Path_42111-3" data-name="Path 42111" d="M287.051,0l26.835,53.99L340.689,0Z" transform="translate(-287.051 0)" fill="#f3bf30"/>
          <path id="Path_42112-3" data-name="Path 42112" d="M287.107,119.115h53.533V68.45l-26.7,39.938L287.107,68.451Z" transform="translate(-287.055 -4.267)" fill="#e8825c" fill-rule="evenodd"/>
        </g>
        <g id="Group_986" data-name="Group 986" transform="translate(201.548 2.113)">
          <path id="Path_42111-4" data-name="Path 42111" d="M287.051,0l26.835,53.99L340.689,0Z" transform="translate(-287.051 0)" fill="#f3bf30"/>
          <path id="Path_42112-4" data-name="Path 42112" d="M287.107,119.115h53.533V68.45l-26.7,39.938L287.107,68.451Z" transform="translate(-287.055 -4.267)" fill="#e8825c" fill-rule="evenodd"/>
        </g>
        <g id="Group_258" data-name="Group 258" transform="translate(201.548 445.02)">
          <path id="Path_42111-5" data-name="Path 42111" d="M287.051,0l26.835,53.99L340.689,0Z" transform="translate(-287.051 0)" fill="#f3bf30"/>
          <path id="Path_42112-5" data-name="Path 42112" d="M287.107,119.115h53.533V68.45l-26.7,39.938L287.107,68.451Z" transform="translate(-287.055 -4.267)" fill="#e8825c" fill-rule="evenodd"/>
        </g>
        <g id="Group_267" data-name="Group 267" transform="translate(315.076 590.544)">
          <path id="Path_42111-6" data-name="Path 42111" d="M287.051,0l26.835,53.99L340.689,0Z" transform="translate(-287.051 0)" fill="#f3bf30"/>
          <path id="Path_42112-6" data-name="Path 42112" d="M287.107,119.115h53.533V68.45l-26.7,39.938L287.107,68.451Z" transform="translate(-287.055 -4.267)" fill="#e8825c" fill-rule="evenodd"/>
        </g>
        <g id="Group_273" data-name="Group 273" transform="translate(452.933 933.363)">
          <path id="Path_42111-7" data-name="Path 42111" d="M287.051,0l26.835,53.99L340.689,0Z" transform="translate(-287.051 0)" fill="#f3bf30"/>
          <path id="Path_42112-7" data-name="Path 42112" d="M287.107,119.115h53.533V68.45l-26.7,39.938L287.107,68.451Z" transform="translate(-287.055 -4.267)" fill="#e8825c" fill-rule="evenodd"/>
        </g>
        <g id="Group_253" data-name="Group 253" transform="translate(35.282 590.543)">
          <path id="Path_42113" data-name="Path 42113" d="M114.012,114.848h0V0H63.158c11.059,0,22.191,2.625,30.15,10.881,7.4,7.672,10.4,17.518,10.4,28.071,0,9.092-2.2,17.908-8.071,24.984a34.767,34.767,0,0,1-10.117,8.31Z" transform="translate(-4.593)" fill="#e5225c" fill-rule="evenodd"/>
          <path id="Path_42114" data-name="Path 42114" d="M48.519,120.019H77.561L53.2,82.938H48.519Z" transform="translate(-3.529 -5.171)" fill="#e8825c" fill-rule="evenodd"/>
          <rect id="Rectangle_10739" data-name="Rectangle 10739" width="15.578" height="114.848" transform="translate(0)" fill="#329d7b"/>
          <path id="Path_42115" data-name="Path 42115" d="M48.519,51.026H62.837A10.209,10.209,0,0,0,72.96,40.789h0A10.209,10.209,0,0,0,62.837,30.552H48.519Z" transform="translate(-3.529 -1.905)" fill="#f3bf30" fill-rule="evenodd"/>
        </g>
        <g id="Group_980" data-name="Group 980" transform="translate(432.74 445.021)">
          <path id="Path_42113-2" data-name="Path 42113" d="M114.012,114.848h0V0H63.158c11.059,0,22.191,2.625,30.15,10.881,7.4,7.672,10.4,17.518,10.4,28.071,0,9.092-2.2,17.908-8.071,24.984a34.767,34.767,0,0,1-10.117,8.31Z" transform="translate(-4.593)" fill="#e5225c" fill-rule="evenodd"/>
          <path id="Path_42114-2" data-name="Path 42114" d="M48.519,120.019H77.561L53.2,82.938H48.519Z" transform="translate(-3.529 -5.171)" fill="#e8825c" fill-rule="evenodd"/>
          <rect id="Rectangle_10739-2" data-name="Rectangle 10739" width="15.578" height="114.848" transform="translate(0)" fill="#329d7b"/>
          <path id="Path_42115-2" data-name="Path 42115" d="M48.519,51.026H62.837A10.209,10.209,0,0,0,72.96,40.789h0A10.209,10.209,0,0,0,62.837,30.552H48.519Z" transform="translate(-3.529 -1.905)" fill="#f3bf30" fill-rule="evenodd"/>
        </g>
        <g id="Group_260" data-name="Group 260" transform="translate(173.14 740.291)">
          <path id="Path_42113-3" data-name="Path 42113" d="M114.012,114.848h0V0H63.158c11.059,0,22.191,2.625,30.15,10.881,7.4,7.672,10.4,17.518,10.4,28.071,0,9.092-2.2,17.908-8.071,24.984a34.767,34.767,0,0,1-10.117,8.31Z" transform="translate(-4.593)" fill="#e5225c" fill-rule="evenodd"/>
          <path id="Path_42114-3" data-name="Path 42114" d="M48.519,120.019H77.561L53.2,82.938H48.519Z" transform="translate(-3.529 -5.171)" fill="#e8825c" fill-rule="evenodd"/>
          <rect id="Rectangle_10739-3" data-name="Rectangle 10739" width="15.578" height="114.848" transform="translate(0)" fill="#329d7b"/>
          <path id="Path_42115-3" data-name="Path 42115" d="M48.519,51.026H62.837A10.209,10.209,0,0,0,72.96,40.789h0A10.209,10.209,0,0,0,62.837,30.552H48.519Z" transform="translate(-3.529 -1.905)" fill="#f3bf30" fill-rule="evenodd"/>
        </g>
        <g id="Group_266" data-name="Group 266" transform="translate(286.668 885.814)">
          <path id="Path_42113-4" data-name="Path 42113" d="M114.012,114.848h0V0H63.158c11.059,0,22.191,2.625,30.15,10.881,7.4,7.672,10.4,17.518,10.4,28.071,0,9.092-2.2,17.908-8.071,24.984a34.767,34.767,0,0,1-10.117,8.31Z" transform="translate(-4.593)" fill="#e5225c" fill-rule="evenodd"/>
          <path id="Path_42114-4" data-name="Path 42114" d="M48.519,120.019H77.561L53.2,82.938H48.519Z" transform="translate(-3.529 -5.171)" fill="#e8825c" fill-rule="evenodd"/>
          <rect id="Rectangle_10739-4" data-name="Rectangle 10739" width="15.578" height="114.848" transform="translate(0)" fill="#329d7b"/>
          <path id="Path_42115-4" data-name="Path 42115" d="M48.519,51.026H62.837A10.209,10.209,0,0,0,72.96,40.789h0A10.209,10.209,0,0,0,62.837,30.552H48.519Z" transform="translate(-3.529 -1.905)" fill="#f3bf30" fill-rule="evenodd"/>
        </g>
        <g id="Group_272" data-name="Group 272" transform="translate(424.525 1228.634)">
          <path id="Path_42113-5" data-name="Path 42113" d="M114.012,114.848h0V0H63.158c11.059,0,22.191,2.625,30.15,10.881,7.4,7.672,10.4,17.518,10.4,28.071,0,9.092-2.2,17.908-8.071,24.984a34.767,34.767,0,0,1-10.117,8.31Z" transform="translate(-4.593)" fill="#e5225c" fill-rule="evenodd"/>
          <path id="Path_42114-5" data-name="Path 42114" d="M48.519,120.019H77.561L53.2,82.938H48.519Z" transform="translate(-3.529 -5.171)" fill="#e8825c" fill-rule="evenodd"/>
          <rect id="Rectangle_10739-5" data-name="Rectangle 10739" width="15.578" height="114.848" transform="translate(0)" fill="#329d7b"/>
          <path id="Path_42115-5" data-name="Path 42115" d="M48.519,51.026H62.837A10.209,10.209,0,0,0,72.96,40.789h0A10.209,10.209,0,0,0,62.837,30.552H48.519Z" transform="translate(-3.529 -1.905)" fill="#f3bf30" fill-rule="evenodd"/>
        </g>
        <g id="Group_254" data-name="Group 254" transform="translate(40.964 442.908)">
          <rect id="Rectangle_10740" data-name="Rectangle 10740" width="15.577" height="114.849" fill="#213e92"/>
          <path id="Path_42116" data-name="Path 42116" d="M251.368,30.552H198.239V46.3h37.55V72.9h-37.55V88.652h53.128v-58.1Z" transform="translate(-153.249 -1.904)" fill="#329d7b" fill-rule="evenodd"/>
        </g>
        <g id="Group_981" data-name="Group 981" transform="translate(438.422 297.385)">
          <rect id="Rectangle_10740-2" data-name="Rectangle 10740" width="15.577" height="114.849" fill="#213e92"/>
          <path id="Path_42116-2" data-name="Path 42116" d="M251.368,30.552H198.239V46.3h37.55V72.9h-37.55V88.652h53.128v-58.1Z" transform="translate(-153.249 -1.904)" fill="#329d7b" fill-rule="evenodd"/>
        </g>
        <g id="Group_259" data-name="Group 259" transform="translate(178.822 592.655)">
          <rect id="Rectangle_10740-3" data-name="Rectangle 10740" width="15.577" height="114.849" fill="#213e92"/>
          <path id="Path_42116-3" data-name="Path 42116" d="M251.368,30.552H198.239V46.3h37.55V72.9h-37.55V88.652h53.128v-58.1Z" transform="translate(-153.249 -1.904)" fill="#329d7b" fill-rule="evenodd"/>
        </g>
        <g id="Group_269" data-name="Group 269" transform="translate(292.349 738.179)">
          <rect id="Rectangle_10740-4" data-name="Rectangle 10740" width="15.577" height="114.849" fill="#213e92"/>
          <path id="Path_42116-4" data-name="Path 42116" d="M251.368,30.552H198.239V46.3h37.55V72.9h-37.55V88.652h53.128v-58.1Z" transform="translate(-153.249 -1.904)" fill="#329d7b" fill-rule="evenodd"/>
        </g>
        <g id="Group_275" data-name="Group 275" transform="translate(430.207 1080.998)">
          <rect id="Rectangle_10740-5" data-name="Rectangle 10740" width="15.577" height="114.849" fill="#213e92"/>
          <path id="Path_42116-5" data-name="Path 42116" d="M251.368,30.552H198.239V46.3h37.55V72.9h-37.55V88.652h53.128v-58.1Z" transform="translate(-153.249 -1.904)" fill="#329d7b" fill-rule="evenodd"/>
        </g>
        <g id="Group_255" data-name="Group 255" transform="translate(33.388 0.001)">
          <path id="Path_42117" data-name="Path 42117" d="M463.833,0l20.715,30.922L505.218,0Z" transform="translate(-427.762 0)" fill="#329d7b"/>
          <path id="Path_42118" data-name="Path 42118" d="M544.314,0,505.421,57.393l38.894,57.456Z" transform="translate(-430.787 0)" fill="#e8825c"/>
          <path id="Path_42119" data-name="Path 42119" d="M424.933,0V114.848l38.894-57.456Z" transform="translate(-424.933 0)" fill="#213e92"/>
          <path id="Path_42120" data-name="Path 42120" d="M463.833,120.428l20.715-30.921,20.67,30.921Z" transform="translate(-427.762 -5.58)" fill="#f3bf30" fill-rule="evenodd"/>
        </g>
        <g id="Group_256" data-name="Group 256" transform="translate(171.246 149.748)">
          <path id="Path_42117-2" data-name="Path 42117" d="M463.833,0l20.715,30.922L505.218,0Z" transform="translate(-427.762 0)" fill="#329d7b"/>
          <path id="Path_42118-2" data-name="Path 42118" d="M544.314,0,505.421,57.393l38.894,57.456Z" transform="translate(-430.787 0)" fill="#e8825c"/>
          <path id="Path_42119-2" data-name="Path 42119" d="M424.933,0V114.848l38.894-57.456Z" transform="translate(-424.933 0)" fill="#213e92"/>
          <path id="Path_42120-2" data-name="Path 42120" d="M463.833,120.428l20.715-30.921,20.67,30.921Z" transform="translate(-427.762 -5.58)" fill="#f3bf30" fill-rule="evenodd"/>
        </g>
        <g id="Group_270" data-name="Group 270" transform="translate(284.773 295.272)">
          <path id="Path_42117-3" data-name="Path 42117" d="M463.833,0l20.715,30.922L505.218,0Z" transform="translate(-427.762 0)" fill="#329d7b"/>
          <path id="Path_42118-3" data-name="Path 42118" d="M544.314,0,505.421,57.393l38.894,57.456Z" transform="translate(-430.787 0)" fill="#e8825c"/>
          <path id="Path_42119-3" data-name="Path 42119" d="M424.933,0V114.848l38.894-57.456Z" transform="translate(-424.933 0)" fill="#213e92"/>
          <path id="Path_42120-3" data-name="Path 42120" d="M463.833,120.428l20.715-30.921,20.67,30.921Z" transform="translate(-427.762 -5.58)" fill="#f3bf30" fill-rule="evenodd"/>
        </g>
        <g id="Group_276" data-name="Group 276" transform="translate(422.631 638.091)">
          <path id="Path_42117-4" data-name="Path 42117" d="M463.833,0l20.715,30.922L505.218,0Z" transform="translate(-427.762 0)" fill="#329d7b"/>
          <path id="Path_42118-4" data-name="Path 42118" d="M544.314,0,505.421,57.393l38.894,57.456Z" transform="translate(-430.787 0)" fill="#e8825c"/>
          <path id="Path_42119-4" data-name="Path 42119" d="M424.933,0V114.848l38.894-57.456Z" transform="translate(-424.933 0)" fill="#213e92"/>
          <path id="Path_42120-4" data-name="Path 42120" d="M463.833,120.428l20.715-30.921,20.67,30.921Z" transform="translate(-427.762 -5.58)" fill="#f3bf30" fill-rule="evenodd"/>
        </g>
      </g>
      <g id="Group_973" data-name="Group 973" transform="translate(42.662 1620.475)">
        <path id="Path_45506" data-name="Path 45506" d="M72.242,110.336h0V0H22.85C33.6,0,44.409,2.514,52.127,10.456c7.195,7.369,10.107,16.829,10.107,26.962,0,8.738-2.141,17.2-7.842,24a33.9,33.9,0,0,1-9.834,7.991Z" transform="translate(34.035)" fill="#ec3c70" fill-rule="evenodd"/>
        <path id="Path_45507" data-name="Path 45507" d="M17.56,65.635H45.766L22.091,30.01H17.56Z" transform="translate(26.156 44.701)" fill="#eb9571" fill-rule="evenodd"/>
        <rect id="Rectangle_10947" data-name="Rectangle 10947" width="15.136" height="110.336" fill="#2daa8c"/>
        <path id="Path_45508" data-name="Path 45508" d="M17.56,30.717H31.476a9.834,9.834,0,0,0,0-19.667H17.56Z" transform="translate(26.156 16.459)" fill="#7047a5" fill-rule="evenodd"/>
      </g>
      <g id="Group_979" data-name="Group 979" transform="translate(37.619)">
        <path id="Path_45506-2" data-name="Path 45506" d="M72.242,110.336h0V0H22.85C33.6,0,44.409,2.514,52.127,10.456c7.195,7.369,10.107,16.829,10.107,26.962,0,8.738-2.141,17.2-7.842,24a33.9,33.9,0,0,1-9.834,7.991Z" transform="translate(34.035)" fill="#ec3c70" fill-rule="evenodd"/>
        <path id="Path_45507-2" data-name="Path 45507" d="M17.56,65.635H45.766L22.091,30.01H17.56Z" transform="translate(26.156 44.701)" fill="#eb9571" fill-rule="evenodd"/>
        <rect id="Rectangle_10947-2" data-name="Rectangle 10947" width="15.136" height="110.336" fill="#2daa8c"/>
        <path id="Path_45508-2" data-name="Path 45508" d="M17.56,30.717H31.476a9.834,9.834,0,0,0,0-19.667H17.56Z" transform="translate(26.156 16.459)" fill="#7047a5" fill-rule="evenodd"/>
      </g>
      <rect id="Rectangle_11127" data-name="Rectangle 11127" width="15.136" height="110.336" transform="translate(381.711 1620.475)" fill="#ec3c70"/>
      <rect id="Rectangle_11130" data-name="Rectangle 11130" width="15.136" height="110.336" transform="translate(376.668)" fill="#ec3c70"/>
      <g id="Group_972" data-name="Group 972" transform="translate(301.224 1620.475)">
        <path id="Path_45501" data-name="Path 45501" d="M155.966,0H103.86l26.065,51.857Z" transform="translate(-103.86)" fill="#eeca47" fill-rule="evenodd"/>
        <path id="Path_45505" data-name="Path 45505" d="M103.88,73.44h52.006V24.77L129.945,63.134,103.88,24.77Z" transform="translate(-103.83 36.896)" fill="#7047a5" fill-rule="evenodd"/>
      </g>
      <g id="Group_977" data-name="Group 977" transform="translate(296.181)">
        <path id="Path_45501-2" data-name="Path 45501" d="M155.966,0H103.86l26.065,51.857Z" transform="translate(-103.86)" fill="#eeca47" fill-rule="evenodd"/>
        <path id="Path_45505-2" data-name="Path 45505" d="M103.88,73.44h52.006V24.77L129.945,63.134,103.88,24.77Z" transform="translate(-103.83 36.896)" fill="#7047a5" fill-rule="evenodd"/>
      </g>
      <g id="Group_974" data-name="Group 974" transform="translate(177.52 1620.475)">
        <rect id="Rectangle_10946" data-name="Rectangle 10946" width="15.136" height="110.336" fill="#424fa0"/>
        <path id="Path_45509" data-name="Path 45509" d="M123.338,11.05H71.73V26.186H108.2V51.754H71.73V66.865h51.608V11.05Z" transform="translate(-28.014 16.459)" fill="#2daa8c" fill-rule="evenodd"/>
      </g>
      <g id="Group_976" data-name="Group 976" transform="translate(172.477)">
        <rect id="Rectangle_10946-2" data-name="Rectangle 10946" width="15.136" height="110.336" fill="#424fa0"/>
        <path id="Path_45509-2" data-name="Path 45509" d="M123.338,11.05H71.73V26.186H108.2V51.754H71.73V66.865h51.608V11.05Z" transform="translate(-28.014 16.459)" fill="#2daa8c" fill-rule="evenodd"/>
      </g>
      <g id="Group_975" data-name="Group 975" transform="translate(425.426 1620.475)">
        <path id="Path_45502" data-name="Path 45502" d="M167.82,0l20.115,29.7L208.026,0Z" transform="translate(-132.792)" fill="#2daa8c" fill-rule="evenodd"/>
        <path id="Path_45503" data-name="Path 45503" d="M220.636,110.336h0L182.87,55.143,220.636,0Z" transform="translate(-110.375)" fill="#eb9571" fill-rule="evenodd"/>
        <path id="Path_45504" data-name="Path 45504" d="M153.75,110.336h0l37.766-55.193L153.75,0Z" transform="translate(-153.75)" fill="#424fa0" fill-rule="evenodd"/>
        <path id="Path_45510" data-name="Path 45510" d="M167.82,62.09l20.115-29.7,20.09,29.7Z" transform="translate(-132.792 48.246)" fill="#eeca47" fill-rule="evenodd"/>
      </g>
      <g id="Group_978" data-name="Group 978" transform="translate(420.383)">
        <path id="Path_45502-2" data-name="Path 45502" d="M167.82,0l20.115,29.7L208.026,0Z" transform="translate(-132.792)" fill="#2daa8c" fill-rule="evenodd"/>
        <path id="Path_45503-2" data-name="Path 45503" d="M220.636,110.336h0L182.87,55.143,220.636,0Z" transform="translate(-110.375)" fill="#eb9571" fill-rule="evenodd"/>
        <path id="Path_45504-2" data-name="Path 45504" d="M153.75,110.336h0l37.766-55.193L153.75,0Z" transform="translate(-153.75)" fill="#424fa0" fill-rule="evenodd"/>
        <path id="Path_45510-2" data-name="Path 45510" d="M167.82,62.09l20.115-29.7,20.09,29.7Z" transform="translate(-132.792 48.246)" fill="#eeca47" fill-rule="evenodd"/>
      </g>
      <path id="Path_49416" data-name="Path 49416" d="M9.56,88.836V60.555H0V56.97H23.053v3.585h-9.61V88.836H9.535Zm40.007.249a11.849,11.849,0,0,1-8.937-3.51q-3.361-3.51-3.361-9.709V56.97h3.909V75.592a10.634,10.634,0,0,0,2.29,7.12,7.656,7.656,0,0,0,6.1,2.664,7.835,7.835,0,0,0,6.149-2.614,10.442,10.442,0,0,0,2.34-7.17V56.97h3.909v18.9c0,4.108-1.12,7.319-3.336,9.684a11.777,11.777,0,0,1-9.037,3.535m51.931-.249H96.818L88.751,76.662H82.727V88.836H78.818V56.97h11.3q5.3,0,7.917,2.689a9.846,9.846,0,0,1,2.614,7.17,8.856,8.856,0,0,1-7.568,9.46v.05l8.439,12.473Zm-18.8-28.281V73.077H89.1q3.809,0,5.676-1.718a6.646,6.646,0,0,0,.025-9.211,7.558,7.558,0,0,0-5.153-1.593H82.727Zm56.114-3.585h3.909V88.836h-3.983l-17.85-25.119h-.1V88.836h-3.909V56.97h3.859l18,25.393h.1V56.97ZM184.2,89.085a11.812,11.812,0,0,1-8.937-3.51q-3.361-3.51-3.361-9.709V56.97h3.909V75.592a10.634,10.634,0,0,0,2.29,7.12,7.656,7.656,0,0,0,6.1,2.664,7.835,7.835,0,0,0,6.149-2.614,10.442,10.442,0,0,0,2.34-7.17V56.97H196.6v18.9c0,4.108-1.12,7.319-3.336,9.684a11.814,11.814,0,0,1-9.037,3.535m29.2-.249V56.97H224.6c3.56,0,6.2.9,7.942,2.689a9.846,9.846,0,0,1,2.614,7.17c0,3.261-1.021,5.726-3.037,7.369a12.6,12.6,0,0,1-8.191,2.465h-6.6V88.836Zm3.909-15.759h6.224c2.539,0,4.431-.573,5.651-1.693a6.055,6.055,0,0,0,1.842-4.631,5.875,5.875,0,0,0-1.817-4.606,7.369,7.369,0,0,0-5.054-1.593H217.31V73.077ZM284.8,88.836V60.555h-9.56V56.97h23.053v3.585h-9.61V88.836h-3.909Zm40.007.249a11.85,11.85,0,0,1-8.937-3.51q-3.361-3.51-3.361-9.709V56.97h3.909V75.592a10.634,10.634,0,0,0,2.29,7.12,7.656,7.656,0,0,0,6.1,2.664,7.835,7.835,0,0,0,6.149-2.614,10.443,10.443,0,0,0,2.34-7.17V56.97h3.909v18.9c0,4.108-1.12,7.319-3.336,9.684a11.814,11.814,0,0,1-9.037,3.535m51.16-32.115H379.9V88.836h-3.983l-17.85-25.119h-.1V88.836H354.06V56.97h3.859l18,25.393h.1V56.97Zm21.186,31.866V56.97H416.7v3.585h-15.56v10.63h12.8V74.77h-12.8V85.226h16.506v3.585H397.178ZM445.749,56.97h3.958V88.836h-3.958Zm43.392,0h3.909V88.836h-3.983l-17.85-25.119h-.1V88.836h-3.909V56.97h3.859l18,25.393h.1V56.97Z" transform="translate(39.3 88.22)" fill="#a4a3ad" fill-rule="evenodd"/>
      <path id="Path_49425" data-name="Path 49425" d="M104.079,72.9a2.527,2.527,0,0,1-1.863-.746,2.428,2.428,0,0,1-.745-1.766,2.547,2.547,0,0,1,2.609-2.562,2.438,2.438,0,0,1,1.789.746,2.482,2.482,0,0,1,.77,1.816,2.286,2.286,0,0,1-.77,1.766,2.479,2.479,0,0,1-1.789.746" transform="translate(190.337 101.526)" fill="#5468cc" fill-rule="evenodd"/>
    </g>
  </g>
</svg>
