<?xml version="1.0" standalone="no"?>
<!DOCTYPE svg PUBLIC "-//W3C//DTD SVG 20010904//EN"
 "http://www.w3.org/TR/2001/REC-SVG-20010904/DTD/svg10.dtd">
<svg version="1.0" xmlns="http://www.w3.org/2000/svg"
 width="100.000000pt" height="100.000000pt" viewBox="0 0 100.000000 100.000000"
 preserveAspectRatio="xMidYMid meet">
<metadata>
Created by potrace 1.14, written by Peter Selinger 2001-2017
</metadata>
<g transform="translate(0.000000,100.000000) scale(0.100000,-0.100000)"
fill="#000000" stroke="none">
<path d="M383 841 c-88 -30 -172 -101 -213 -181 -85 -163 -23 -383 135 -478
69 -42 119 -55 195 -54 200 3 360 164 360 362 0 59 -23 155 -40 165 -23 14
-26 -8 -7 -62 51 -153 -22 -324 -175 -405 -36 -19 -58 -23 -138 -23 -84 0
-102 3 -152 28 -68 33 -121 90 -156 166 -39 82 -38 193 1 273 73 149 233 225
387 184 58 -15 78 -12 60 9 -30 36 -174 45 -257 16z"/>
<path d="M393 791 c-137 -47 -221 -175 -211 -320 5 -73 33 -140 50 -123 8 8 7
21 -3 44 -22 51 -18 164 8 221 76 166 301 216 443 98 109 -90 130 -276 44
-388 -50 -66 -141 -115 -212 -115 -12 0 -25 -5 -28 -10 -20 -32 85 -24 155 12
136 69 203 235 155 387 -14 44 -31 71 -74 114 -90 93 -208 121 -327 80z"/>
<path d="M428 753 c-9 -2 -15 -10 -12 -18 4 -10 19 -12 58 -8 138 14 256 -94
256 -235 0 -123 -92 -222 -220 -236 -100 -10 -216 73 -240 173 -7 29 -10 73
-7 97 5 50 -6 66 -24 33 -16 -30 -7 -136 16 -183 55 -114 194 -176 315 -140
235 70 260 395 38 499 -45 21 -137 30 -180 18z"/>
<path d="M469 709 c-83 -13 -143 -59 -174 -133 -44 -104 3 -228 107 -282 38
-20 120 -25 161 -11 31 10 31 33 1 30 -73 -9 -103 -8 -134 4 -113 45 -154 181
-86 283 69 105 237 104 305 -2 27 -43 57 -53 45 -15 -25 78 -135 140 -225 126z"/>
<path d="M485 664 c-5 -1 -22 -5 -37 -8 -33 -7 -84 -50 -102 -85 -21 -40 -25
-94 -10 -130 21 -49 33 -37 27 27 -6 70 12 113 60 142 93 57 213 -14 209 -124
-3 -65 -41 -110 -108 -127 -45 -12 -56 -25 -29 -35 37 -14 124 36 150 86 39
75 9 192 -59 227 -33 17 -85 31 -101 27z"/>
</g>
</svg>
